<svg width="36" height="36" viewBox="0 0 36 36" fill="none" xmlns="http://www.w3.org/2000/svg">
<g clip-path="url(#clip0_305_422)">
<path d="M22.097 4.74193C22.1997 4.74206 22.3013 4.76242 22.3961 4.80185C22.4909 4.84128 22.577 4.89901 22.6495 4.97174L30.3834 12.7057C30.53 12.8522 30.6123 13.0509 30.6123 13.2581C30.6123 13.4653 30.53 13.6641 30.3834 13.8106C29.6321 14.5619 28.7085 14.7298 28.0356 14.7309C27.7583 14.7298 27.5119 14.7022 27.3153 14.669L22.4197 19.5647L22.4528 19.7039C22.5368 20.0685 22.6318 20.5767 22.6694 21.1468C22.7434 22.2461 22.6196 23.7841 21.5446 24.8591C21.3981 25.0056 21.1994 25.0879 20.9922 25.0879C20.785 25.0879 20.5863 25.0056 20.4398 24.8591L16.0203 20.4397L11.0485 25.4115C10.7436 25.7165 9.14373 26.8213 8.83879 26.5164C8.53385 26.2115 9.6387 24.6116 9.94364 24.3067L14.9155 19.3348L10.4961 14.9154C10.3496 14.7689 10.2672 14.5702 10.2672 14.363C10.2672 14.1558 10.3496 13.9571 10.4961 13.8106C11.5711 12.7355 13.1091 12.6118 14.2073 12.6847C14.7412 12.723 15.2709 12.8069 15.7905 12.9355L20.6861 8.03992C20.647 7.80175 20.6263 7.56091 20.6243 7.31955C20.6254 6.64669 20.7944 5.72193 21.5446 4.97174C21.6171 4.89901 21.7032 4.84128 21.798 4.80185C21.8927 4.76242 21.9944 4.74206 22.097 4.74193Z" fill="#545454"/>
</g>
<defs>
<clipPath id="clip0_305_422">
<rect width="25" height="25" fill="white" transform="translate(17.6777) rotate(45)"/>
</clipPath>
</defs>
</svg>
