<svg width="38" height="24" viewBox="0 0 38 24" fill="none" xmlns="http://www.w3.org/2000/svg">
<path d="M21 2H31C31.7956 2 32.5587 2.31607 33.1213 2.87868C33.6839 3.44129 34 4.20435 34 5V19C34 19.7956 33.6839 20.5587 33.1213 21.1213C32.5587 21.6839 31.7956 22 31 22H21C20.2044 22 19.4413 21.6839 18.8787 21.1213C18.3161 20.5587 18 19.7956 18 19V5C18 4.20435 18.3161 3.44129 18.8787 2.87868C19.4413 2.31607 20.2044 2 21 2ZM21 4C20.7348 4 20.4804 4.10536 20.2929 4.29289C20.1054 4.48043 20 4.73478 20 5V19C20 19.2652 20.1054 19.5196 20.2929 19.7071C20.4804 19.8946 20.7348 20 21 20H31C31.2652 20 31.5196 19.8946 31.7071 19.7071C31.8946 19.5196 32 19.2652 32 19V5C32 4.73478 31.8946 4.48043 31.7071 4.29289C31.5196 4.10536 31.2652 4 31 4H21ZM23 5H29C29.2652 5 29.5196 5.10536 29.7071 5.29289C29.8946 5.48043 30 5.73478 30 6C30 6.26522 29.8946 6.51957 29.7071 6.70711C29.5196 6.89464 29.2652 7 29 7H23C22.7348 7 22.4804 6.89464 22.2929 6.70711C22.1054 6.51957 22 6.26522 22 6C22 5.73478 22.1054 5.48043 22.2929 5.29289C22.4804 5.10536 22.7348 5 23 5ZM23 17H25C25.2652 17 25.5196 17.1054 25.7071 17.2929C25.8946 17.4804 26 17.7348 26 18C26 18.2652 25.8946 18.5196 25.7071 18.7071C25.5196 18.8946 25.2652 19 25 19H23C22.7348 19 22.4804 18.8946 22.2929 18.7071C22.1054 18.5196 22 18.2652 22 18C22 17.7348 22.1054 17.4804 22.2929 17.2929C22.4804 17.1054 22.7348 17 23 17ZM23 13H29C29.2652 13 29.5196 13.1054 29.7071 13.2929C29.8946 13.4804 30 13.7348 30 14C30 14.2652 29.8946 14.5196 29.7071 14.7071C29.5196 14.8946 29.2652 15 29 15H23C22.7348 15 22.4804 14.8946 22.2929 14.7071C22.1054 14.5196 22 14.2652 22 14C22 13.7348 22.1054 13.4804 22.2929 13.2929C22.4804 13.1054 22.7348 13 23 13ZM23 9H29C29.2652 9 29.5196 9.10536 29.7071 9.29289C29.8946 9.48043 30 9.73478 30 10C30 10.2652 29.8946 10.5196 29.7071 10.7071C29.5196 10.8946 29.2652 11 29 11H23C22.7348 11 22.4804 10.8946 22.2929 10.7071C22.1054 10.5196 22 10.2652 22 10C22 9.73478 22.1054 9.48043 22.2929 9.29289C22.4804 9.10536 22.7348 9 23 9Z" fill="#545454"/>
<g clip-path="url(#clip0_1055_2210)">
<path d="M3.99935 12L14.666 2V22L3.99935 12Z" fill="#545454"/>
</g>
<defs>
<clipPath id="clip0_1055_2210">
<rect width="20" height="20" fill="white" transform="matrix(0 1 -1 0 20 2)"/>
</clipPath>
</defs>
</svg>
