<svg width="33" height="30" viewBox="0 0 33 30" fill="none" xmlns="http://www.w3.org/2000/svg">
<path d="M16 0H4C2.9 0 2 0.899 2 2V17C2 17.2652 2.10536 17.5196 2.29289 17.7071C2.48043 17.8946 2.73478 18 3 18V20H17V18C17.2652 18 17.5196 17.8946 17.7071 17.7071C17.8946 17.5196 18 17.2652 18 17V2C18 0.899 17.101 0 16 0ZM14 15H10V14H14V15ZM15 11H5V3H15V11Z" fill="#545454"/>
<line x1="21" y1="9.5" x2="23" y2="9.5" stroke="#545454"/>
<line x1="24" y1="9.5" x2="26" y2="9.5" stroke="#545454"/>
<line x1="27" y1="9.5" x2="29" y2="9.5" stroke="#545454"/>
<line x1="30" y1="9.5" x2="32" y2="9.5" stroke="#545454"/>
<path d="M5.88068 29V21.7273H10.2699V22.5085H6.76136V24.9659H10.0426V25.7472H6.76136V28.2188H10.3267V29H5.88068ZM11.8572 29V21.7273H12.7379V28.2188H16.1186V29H11.8572ZM17.4822 29V21.7273H20.0249C20.5315 21.7273 20.9493 21.8149 21.2784 21.9901C21.6075 22.1629 21.8525 22.3961 22.0135 22.6896C22.1745 22.9808 22.255 23.304 22.255 23.6591C22.255 23.9716 22.1993 24.2296 22.0881 24.4332C21.9792 24.6368 21.8348 24.7978 21.6548 24.9162C21.4773 25.0346 21.2843 25.1222 21.076 25.179V25.25C21.2985 25.2642 21.5223 25.3423 21.7472 25.4844C21.9721 25.6264 22.1603 25.83 22.3118 26.0952C22.4633 26.3603 22.5391 26.6847 22.5391 27.0682C22.5391 27.4328 22.4562 27.7607 22.2905 28.0518C22.1248 28.343 21.8632 28.5739 21.5057 28.7443C21.1482 28.9148 20.683 29 20.1101 29H17.4822ZM18.3629 28.2188H20.1101C20.6854 28.2188 21.0938 28.1075 21.3352 27.8849C21.5791 27.66 21.701 27.3878 21.701 27.0682C21.701 26.822 21.6383 26.5947 21.5128 26.3864C21.3873 26.1757 21.2086 26.0076 20.9766 25.8821C20.7446 25.7543 20.4699 25.6903 20.1527 25.6903H18.3629V28.2188ZM18.3629 24.9233H19.9964C20.2616 24.9233 20.5007 24.8712 20.7138 24.767C20.9292 24.6629 21.0997 24.5161 21.2251 24.3267C21.353 24.1373 21.4169 23.9148 21.4169 23.6591C21.4169 23.3395 21.3056 23.0684 21.0831 22.8459C20.8606 22.621 20.5078 22.5085 20.0249 22.5085H18.3629V24.9233ZM24.2844 29H23.3612L26.0316 21.7273H26.9407L29.6112 29H28.6879L26.5146 22.8778H26.4577L24.2844 29ZM24.6254 26.1591H28.3469V26.9403H24.6254V26.1591Z" fill="#545454"/>
</svg>
