<svg width="33" height="30" viewBox="0 0 33 30" fill="none" xmlns="http://www.w3.org/2000/svg">
<g clip-path="url(#clip0_305_406)">
<path d="M16 0H4C2.9 0 2 0.899 2 2V17C2 17.2652 2.10536 17.5196 2.29289 17.7071C2.48043 17.8946 2.73478 18 3 18V20H17V18C17.2652 18 17.5196 17.8946 17.7071 17.7071C17.8946 17.5196 18 17.2652 18 17V2C18 0.899 17.101 0 16 0ZM14 15H10V14H14V15ZM15 11H5V3H15V11Z" fill="#D9D9D9" fill-opacity="0.9"/>
<line x1="21" y1="9.5" x2="23" y2="9.5" stroke="#D9D9D9" stroke-opacity="0.9"/>
<line x1="24" y1="9.5" x2="26" y2="9.5" stroke="#D9D9D9" stroke-opacity="0.9"/>
<line x1="27" y1="9.5" x2="29" y2="9.5" stroke="#D9D9D9" stroke-opacity="0.9"/>
<line x1="30" y1="9.5" x2="32" y2="9.5" stroke="#D9D9D9" stroke-opacity="0.9"/>
<path d="M4.125 29H1.88068V21.7273H4.22443C4.92992 21.7273 5.53362 21.8729 6.03551 22.1641C6.53741 22.4529 6.92211 22.8684 7.18963 23.4105C7.45715 23.9503 7.59091 24.5966 7.59091 25.3494C7.59091 26.107 7.45597 26.7592 7.18608 27.3061C6.91619 27.8506 6.5232 28.2696 6.0071 28.5632C5.491 28.8544 4.86364 29 4.125 29ZM2.76136 28.2188H4.06818C4.66951 28.2188 5.16785 28.1027 5.56321 27.8707C5.95857 27.6387 6.25331 27.3085 6.44744 26.88C6.64157 26.4515 6.73864 25.9413 6.73864 25.3494C6.73864 24.7623 6.64276 24.2569 6.45099 23.8331C6.25923 23.407 5.97277 23.0803 5.59162 22.853C5.21046 22.6233 4.7358 22.5085 4.16761 22.5085H2.76136V28.2188ZM9.06818 29V21.7273H13.4574V22.5085H9.94886V24.9659H13.2301V25.7472H9.94886V28.2188H13.5142V29H9.06818ZM15.0447 29V21.7273H17.5021C18.0727 21.7273 18.5391 21.8303 18.9013 22.0362C19.2659 22.2398 19.5357 22.5156 19.7109 22.8636C19.8861 23.2116 19.9737 23.5999 19.9737 24.0284C19.9737 24.4569 19.8861 24.8464 19.7109 25.1967C19.5381 25.5471 19.2706 25.8265 18.9084 26.0348C18.5462 26.2408 18.0821 26.3438 17.5163 26.3438H15.755V25.5625H17.4879C17.8786 25.5625 18.1922 25.495 18.429 25.3601C18.6657 25.2251 18.8374 25.0429 18.9439 24.8132C19.0528 24.5812 19.1072 24.3196 19.1072 24.0284C19.1072 23.7372 19.0528 23.4768 18.9439 23.2472C18.8374 23.0175 18.6645 22.8376 18.4254 22.7074C18.1863 22.5748 17.8691 22.5085 17.4737 22.5085H15.9254V29H15.0447ZM27.5288 25.3636C27.5288 26.1307 27.3903 26.7936 27.1133 27.3523C26.8363 27.911 26.4563 28.3419 25.9734 28.6449C25.4904 28.9479 24.9388 29.0994 24.3185 29.0994C23.6983 29.0994 23.1467 28.9479 22.6637 28.6449C22.1808 28.3419 21.8008 27.911 21.5238 27.3523C21.2468 26.7936 21.1083 26.1307 21.1083 25.3636C21.1083 24.5966 21.2468 23.9337 21.5238 23.375C21.8008 22.8163 22.1808 22.3854 22.6637 22.0824C23.1467 21.7794 23.6983 21.6278 24.3185 21.6278C24.9388 21.6278 25.4904 21.7794 25.9734 22.0824C26.4563 22.3854 26.8363 22.8163 27.1133 23.375C27.3903 23.9337 27.5288 24.5966 27.5288 25.3636ZM26.6765 25.3636C26.6765 24.7339 26.5711 24.2024 26.3604 23.7692C26.1521 23.3359 25.8692 23.008 25.5117 22.7855C25.1566 22.563 24.7589 22.4517 24.3185 22.4517C23.8782 22.4517 23.4793 22.563 23.1218 22.7855C22.7667 23.008 22.4838 23.3359 22.2731 23.7692C22.0647 24.2024 21.9606 24.7339 21.9606 25.3636C21.9606 25.9934 22.0647 26.5249 22.2731 26.9581C22.4838 27.3913 22.7667 27.7192 23.1218 27.9418C23.4793 28.1643 23.8782 28.2756 24.3185 28.2756C24.7589 28.2756 25.1566 28.1643 25.5117 27.9418C25.8692 27.7192 26.1521 27.3913 26.3604 26.9581C26.5711 26.5249 26.6765 25.9934 26.6765 25.3636ZM28.3091 22.5085V21.7273H33.7637V22.5085H31.4767V29H30.5961V22.5085H28.3091Z" fill="#D9D9D9" fill-opacity="0.9"/>
</g>
<defs>
<clipPath id="clip0_305_406">
<rect width="33" height="30" fill="white"/>
</clipPath>
</defs>
</svg>
