<svg width="30" height="30" viewBox="0 0 30 30" fill="none" xmlns="http://www.w3.org/2000/svg">
<path d="M15 25C20.5231 25 25 20.5231 25 15C25 9.47688 20.5231 5 15 5C9.47688 5 5 9.47688 5 15C5 20.5231 9.47688 25 15 25Z" stroke="#545454" stroke-width="4" stroke-linecap="round" stroke-linejoin="round"/>
<path d="M15 17.5C15.663 17.5 16.2989 17.2366 16.7678 16.7678C17.2366 16.2989 17.5 15.663 17.5 15C17.5 14.337 17.2366 13.7011 16.7678 13.2322C16.2989 12.7634 15.663 12.5 15 12.5C14.337 12.5 13.7011 12.7634 13.2322 13.2322C12.7634 13.7011 12.5 14.337 12.5 15C12.5 15.663 12.7634 16.2989 13.2322 16.7678C13.7011 17.2366 14.337 17.5 15 17.5ZM15 2.5C16.6415 2.5 18.267 2.82332 19.7835 3.45151C21.3001 4.07969 22.6781 5.00043 23.8388 6.16117C24.9996 7.3219 25.9203 8.69989 26.5485 10.2165C27.1767 11.733 27.5 13.3585 27.5 15H22.5038C22.5038 13.0099 21.7132 11.1013 20.306 9.69405C18.8987 8.28682 16.9901 7.49625 15 7.49625V2.5Z" stroke="#545454" stroke-width="4" stroke-linecap="round" stroke-linejoin="round"/>
</svg>
