<svg width="30" height="30" viewBox="0 0 30 30" fill="none" xmlns="http://www.w3.org/2000/svg">
<path d="M21.2495 9.80752H8.74945V5.77002H21.2495V9.80752ZM22.0195 15.145C22.3736 15.145 22.6703 15.025 22.9095 14.785C23.1486 14.545 23.2686 14.2484 23.2695 13.895C23.2703 13.5417 23.1503 13.2446 22.9095 13.0038C22.6686 12.7629 22.372 12.6429 22.0195 12.6438C21.667 12.6446 21.3699 12.7646 21.1282 13.0038C20.8865 13.2429 20.767 13.54 20.7695 13.895C20.772 14.25 20.8915 14.5467 21.1282 14.785C21.3649 15.0234 21.662 15.1434 22.0195 15.145ZM19.9995 23.75V18.0775H9.99945V23.75H19.9995ZM21.2495 25H8.74945V20H4.4707V13.27C4.4707 12.5617 4.71112 11.9679 5.19195 11.4888C5.67279 11.0096 6.2657 10.7696 6.9707 10.7688H23.0282C23.7365 10.7688 24.3303 11.0088 24.8095 11.4888C25.2886 11.9688 25.5282 12.5621 25.5282 13.2688V20H21.2495V25Z" fill="#545454"/>
</svg>
