<svg width="30" height="30" viewBox="0 0 30 30" fill="none" xmlns="http://www.w3.org/2000/svg">
<path fill-rule="evenodd" clip-rule="evenodd" d="M9.60938 3.75C8.36198 3.75 7.43069 4.14598 6.73342 4.85338C6.08473 5.51156 5.70533 6.37893 5.39795 7.15465L1.36424 17.9116C1.31637 18.0342 1.27116 18.1577 1.22865 18.2822C1.21405 18.3224 1.20229 18.3628 1.19338 18.4034C1.02316 18.9721 0.936959 19.5626 0.937503 20.1562C0.937503 23.5218 3.66574 26.25 7.03125 26.25C10.3968 26.25 13.125 23.5218 13.125 20.1562V16.6136L13.1273 16.613L16.875 16.6136V20.1562C16.875 23.5218 19.6032 26.25 22.9688 26.25C26.3343 26.25 29.0625 23.5218 29.0625 20.1562C29.0625 19.5469 28.9731 18.9585 28.8066 18.4034C28.7876 18.3398 28.6358 17.9117 28.6358 17.9117L24.6393 7.25262L24.6021 7.15465C24.2947 6.37893 23.9153 5.51156 23.2666 4.85338C22.5693 4.14598 21.638 3.75 20.3906 3.75C19.3104 3.75 18.4023 4.17416 17.7767 4.89885C17.1646 5.60783 16.875 6.54129 16.875 7.5V9.53959H13.125V7.5C13.125 6.54129 12.8354 5.60783 12.2233 4.89885C11.5977 4.17416 10.6896 3.75 9.60938 3.75ZM3.28125 20.1562C3.28125 18.0852 4.9602 16.4062 7.03125 16.4062C9.10231 16.4062 10.7813 18.0852 10.7813 20.1562C10.7813 22.2273 9.10231 23.9062 7.03125 23.9062C4.9602 23.9062 3.28125 22.2273 3.28125 20.1562ZM19.2188 20.1562C19.2188 18.0852 20.8977 16.4062 22.9688 16.4062C25.0398 16.4062 26.7188 18.0852 26.7188 20.1562C26.7188 22.2273 25.0398 23.9062 22.9688 23.9062C20.8977 23.9062 19.2188 22.2273 19.2188 20.1562Z" fill="#545454"/>
</svg>
