<svg width="30" height="30" viewBox="0 0 30 30" fill="none" xmlns="http://www.w3.org/2000/svg">
<g clip-path="url(#clip0_305_339)">
<path d="M2.50039 3.60469C1.76387 3.60469 1.1668 3.00762 1.1668 2.27109C1.1668 1.53457 1.76387 0.9375 2.50039 0.9375C3.23691 0.9375 3.83398 1.53457 3.83398 2.27109C3.83398 3.00762 3.23691 3.60469 2.50039 3.60469Z" fill="#F44336"/>
<path d="M11.2281 18.3701C11.2281 18.3701 8.99922 21.3701 8.99922 22.5537C8.99922 23.7373 9.96016 24.6982 11.1438 24.6982C12.1539 24.6982 24.7844 24.6725 26.1789 24.6725C27.5734 24.6725 28.3633 25.4904 28.3633 25.4904" stroke="#3C3C3C" stroke-width="1.91" stroke-miterlimit="10" stroke-linecap="round"/>
<path d="M16.2852 18C16.2852 18 13.8008 21.293 13.8008 22.4789C13.8008 23.6648 14.8883 24.6164 16.0719 24.6164" stroke="#3C3C3C" stroke-width="1.91" stroke-miterlimit="10" stroke-linecap="round"/>
<path d="M10.6004 20.3275C11.0715 19.5213 11.4535 19.0525 12.0676 18.2135C12.0676 18.2135 11.9059 18.2486 11.4699 18.2486C11.034 18.2486 10.7199 18.1104 10.7199 18.1104C10.1012 18.9846 9.91602 19.2072 9.58555 19.7932C9.58555 19.7932 9.59727 20.1752 9.90195 20.3768C10.2066 20.5783 10.6004 20.3275 10.6004 20.3275ZM15.3371 20.3674C15.991 19.3689 16.5137 18.6072 16.5137 18.6072L15.1074 18.64C15.1074 18.64 14.477 19.4861 14.116 20.1564C14.116 20.1564 14.0621 20.4611 14.4652 20.6205C14.8684 20.7752 15.3371 20.3674 15.3371 20.3674Z" fill="#2F7889"/>
<path d="M11.225 18.4311L27.6172 17.3389C27.6711 17.3342 27.7109 17.292 27.7109 17.2381V8.08575C27.7109 7.99904 27.643 7.92638 27.5563 7.92169L6.7836 6.59982C6.58204 6.58575 6.43672 6.78732 6.50938 6.97482L10.9203 18.2389C10.9695 18.3631 11.0914 18.4404 11.225 18.4311Z" stroke="#3C3C3C" stroke-width="1.91" stroke-miterlimit="10"/>
<path d="M24.452 7.74834L24.8832 17.4608M20.7324 7.49521L22.0801 17.6694M17.0105 7.24209L19.277 17.878M13.2887 6.98896L16.4738 18.0866M9.56915 6.73584L13.6707 18.2952M28.0566 11.3624L8.00352 10.6733M27.8715 14.5569H9.26211" stroke="#3C3C3C" stroke-miterlimit="10"/>
<path d="M11.1547 29.0627C10.1787 29.0627 9.3875 28.2715 9.3875 27.2955C9.3875 26.3195 10.1787 25.5283 11.1547 25.5283C12.1307 25.5283 12.9219 26.3195 12.9219 27.2955C12.9219 28.2715 12.1307 29.0627 11.1547 29.0627Z" fill="#424242"/>
<path d="M12.293 24.8623H10.0125L10.5563 27.2271C10.6078 27.5951 10.8586 27.8623 11.1516 27.8623C11.4445 27.8623 11.6977 27.5951 11.7469 27.2271L12.293 24.8623Z" fill="#3C3C3C"/>
<path d="M10.7874 27.3117C10.8296 27.4664 10.9069 27.6422 11.0639 27.682C11.6311 27.8273 11.7108 26.4328 11.4249 26.1937C11.2514 26.0484 10.8905 26.0226 10.7382 26.2031C10.5436 26.4328 10.7147 27.0562 10.7874 27.3117Z" fill="#A8E3F0"/>
<path d="M11.1254 25.6993C11.5027 25.6993 11.7699 25.4767 11.9011 25.3384C11.9101 25.3292 11.9161 25.3177 11.9186 25.3051C11.9211 25.2926 11.92 25.2796 11.9153 25.2677C11.9106 25.2558 11.9025 25.2456 11.8921 25.2381C11.8817 25.2307 11.8694 25.2265 11.8566 25.2259C11.6129 25.2142 11.3691 25.2165 11.1277 25.2095C10.884 25.2165 10.6402 25.2142 10.3988 25.2259C10.3426 25.2282 10.3144 25.2985 10.3543 25.3384C10.4785 25.4767 10.748 25.6993 11.1254 25.6993Z" fill="#2F7889"/>
<path d="M11.7097 27.8951C11.5574 28.0709 11.3137 28.1529 11.0816 28.1248C10.8519 28.0967 10.641 27.9607 10.5027 27.7732C10.423 27.6631 10.3668 27.5365 10.2754 27.4357C10.184 27.3349 10.0387 27.2646 9.91209 27.3162C9.73396 27.3865 9.71053 27.6349 9.77147 27.8154C9.83056 27.9957 9.92506 28.1624 10.0494 28.3056C10.1738 28.4489 10.3255 28.5659 10.4957 28.6498C10.7277 28.7646 11.0512 28.8115 11.309 28.7857C11.8035 28.7342 12.3355 28.2865 12.509 27.8271C12.6027 27.581 12.6847 27.0865 12.1949 27.199C11.9676 27.2529 11.8926 27.6842 11.7097 27.8951Z" fill="#757575"/>
<path d="M6.60547 7.19775L5.525 4.55635C5.08438 3.47822 4.75859 3.23682 4.10469 2.94385L2.57422 2.32275" stroke="#3C3C3C" stroke-width="1.91" stroke-miterlimit="10" stroke-linecap="round"/>
<path d="M25.4066 29.0627C24.4307 29.0627 23.6395 28.2715 23.6395 27.2955C23.6395 26.3195 24.4307 25.5283 25.4066 25.5283C26.3826 25.5283 27.1738 26.3195 27.1738 27.2955C27.1738 28.2715 26.3826 29.0627 25.4066 29.0627Z" fill="#424242"/>
<path d="M26.5469 24.8623H24.2664L24.8102 27.2271C24.8617 27.5951 25.1125 27.8623 25.4055 27.8623C25.6984 27.8623 25.9516 27.5951 26.0008 27.2271L26.5469 24.8623Z" fill="#3C3C3C"/>
<path d="M25.0413 27.3117C25.0835 27.4664 25.1608 27.6422 25.3178 27.682C25.885 27.8273 25.9647 26.4328 25.6788 26.1937C25.5053 26.0484 25.1444 26.0226 24.9921 26.2031C24.7975 26.4328 24.971 27.0562 25.0413 27.3117Z" fill="#A8E3F0"/>
<path d="M25.3773 25.6993C25.7547 25.6993 26.0218 25.4767 26.1531 25.3384C26.162 25.3292 26.1681 25.3177 26.1706 25.3051C26.1731 25.2926 26.1719 25.2796 26.1672 25.2677C26.1625 25.2558 26.1545 25.2456 26.1441 25.2381C26.1337 25.2307 26.1213 25.2265 26.1086 25.2259C25.8648 25.2142 25.6211 25.2165 25.3797 25.2095C25.1359 25.2165 24.8922 25.2142 24.6508 25.2259C24.5945 25.2282 24.5664 25.2985 24.6062 25.3384C24.7328 25.4767 25.0023 25.6993 25.3773 25.6993Z" fill="#2F7889"/>
<path d="M25.9637 27.8951C25.8113 28.0709 25.5676 28.1529 25.3355 28.1248C25.1058 28.0967 24.8949 27.9607 24.7566 27.7732C24.6769 27.6631 24.6207 27.5365 24.5293 27.4357C24.4379 27.3349 24.2926 27.2646 24.166 27.3162C23.9879 27.3865 23.9644 27.6349 24.0254 27.8154C24.0845 27.9957 24.179 28.1624 24.3033 28.3056C24.4277 28.4489 24.5794 28.5659 24.7496 28.6498C24.9816 28.7646 25.3051 28.8115 25.5629 28.7857C26.0574 28.7342 26.5894 28.2865 26.7629 27.8271C26.8566 27.581 26.9387 27.0865 26.4488 27.199C26.2215 27.2529 26.1465 27.6842 25.9637 27.8951Z" fill="#757575"/>
</g>
<defs>
<clipPath id="clip0_305_339">
<rect width="30" height="30" fill="white" transform="matrix(-1 0 0 1 30 0)"/>
</clipPath>
</defs>
</svg>
