<svg width="33" height="30" viewBox="0 0 33 30" fill="none" xmlns="http://www.w3.org/2000/svg">
<g clip-path="url(#clip0_305_400)">
<path d="M13.2 0H3.6C2.72 0 2 0.7192 2 1.6V13.6C2 13.8122 2.08429 14.0157 2.23431 14.1657C2.38434 14.3157 2.58783 14.4 2.8 14.4V16H14V14.4C14.2122 14.4 14.4157 14.3157 14.5657 14.1657C14.7157 14.0157 14.8 13.8122 14.8 13.6V1.6C14.8 0.7192 14.0808 0 13.2 0ZM11.6 12H8.4V11.2H11.6V12ZM12.4 8.8H4.4V2.4H12.4V8.8Z" fill="#D9D9D9" fill-opacity="0.9"/>
<line x1="16" y1="7.5" x2="18" y2="7.5" stroke="#D9D9D9" stroke-opacity="0.9"/>
<line x1="19" y1="7.5" x2="21" y2="7.5" stroke="#D9D9D9" stroke-opacity="0.9"/>
<path d="M33 2.3125H23C22.7234 2.3125 22.5 2.60576 22.5 2.96875V7.5625H33.5V2.96875C33.5 2.60576 33.2766 2.3125 33 2.3125ZM24.5 5.75781C24.1547 5.75781 23.875 5.39072 23.875 4.9375C23.875 4.48428 24.1547 4.11719 24.5 4.11719C24.8453 4.11719 25.125 4.48428 25.125 4.9375C25.125 5.39072 24.8453 5.75781 24.5 5.75781ZM22.5 20.0312C22.5 20.3942 22.7234 20.6875 23 20.6875H33C33.2766 20.6875 33.5 20.3942 33.5 20.0312V15.4375H22.5V20.0312ZM24.5 17.2422C24.8453 17.2422 25.125 17.6093 25.125 18.0625C25.125 18.5157 24.8453 18.8828 24.5 18.8828C24.1547 18.8828 23.875 18.5157 23.875 18.0625C23.875 17.6093 24.1547 17.2422 24.5 17.2422ZM22.5 14.125H33.5V8.875H22.5V14.125ZM24.5 10.6797C24.8453 10.6797 25.125 11.0468 25.125 11.5C25.125 11.9532 24.8453 12.3203 24.5 12.3203C24.1547 12.3203 23.875 11.9532 23.875 11.5C23.875 11.0468 24.1547 10.6797 24.5 10.6797Z" fill="#D9D9D9" fill-opacity="0.9"/>
</g>
<defs>
<clipPath id="clip0_305_400">
<rect width="33" height="30" fill="white"/>
</clipPath>
</defs>
</svg>
