<svg width="31" height="24" viewBox="0 0 31 24" fill="none" xmlns="http://www.w3.org/2000/svg">
<g clip-path="url(#clip0_305_444)">
<path d="M9.47276 18.9474H11.3675V13.8948H9.47276V15.4738H7.57802V17.3685H9.47276V18.9474ZM12.6307 17.3685H22.7359V15.4738H12.6307V17.3685ZM18.9464 13.8948H20.8412V12.3159H22.7359V10.4211H20.8412V8.84218H18.9464V13.8948ZM7.57802 12.3159H17.6833V10.4211H7.57802V12.3159ZM10.1043 26.5264V24.0001H5.05171C4.35697 24.0001 3.76244 23.7529 3.26813 23.2586C2.77381 22.7643 2.52623 22.1693 2.52539 21.4738V6.31587C2.52539 5.62113 2.77297 5.0266 3.26813 4.53229C3.76329 4.03797 4.35781 3.79039 5.05171 3.78955H25.2622C25.957 3.78955 26.5519 4.03713 27.0471 4.53229C27.5422 5.02745 27.7894 5.62197 27.7886 6.31587V21.4738C27.7886 22.1685 27.5414 22.7634 27.0471 23.2586C26.5528 23.7538 25.9578 24.0009 25.2622 24.0001H20.2096V26.5264H10.1043Z" fill="#545454"/>
</g>
<defs>
<clipPath id="clip0_305_444">
<rect width="30.3158" height="24" fill="white"/>
</clipPath>
</defs>
</svg>
