<svg width="30" height="30" viewBox="0 0 30 30" fill="none" xmlns="http://www.w3.org/2000/svg">
<path d="M10 14.1662L22.7788 5.6475C22.8729 5.58487 22.9822 5.54894 23.0951 5.54354C23.2081 5.53813 23.3203 5.56346 23.42 5.61682C23.5197 5.67018 23.603 5.74958 23.6611 5.84655C23.7192 5.94353 23.7499 6.05445 23.75 6.1675V23.8325C23.7499 23.9455 23.7192 24.0565 23.6611 24.1534C23.603 24.2504 23.5197 24.3298 23.42 24.3832C23.3203 24.4365 23.2081 24.4619 23.0951 24.4565C22.9822 24.4511 22.8729 24.4151 22.7788 24.3525L10 15.8337V23.75C10 24.0815 9.8683 24.3995 9.63388 24.6339C9.39946 24.8683 9.08152 25 8.75 25C8.41848 25 8.10054 24.8683 7.86612 24.6339C7.6317 24.3995 7.5 24.0815 7.5 23.75V6.25C7.5 5.91848 7.6317 5.60054 7.86612 5.36612C8.10054 5.1317 8.41848 5 8.75 5C9.08152 5 9.39946 5.1317 9.63388 5.36612C9.8683 5.60054 10 5.91848 10 6.25V14.1662Z" fill="#545454"/>
</svg>
