<svg width="27" height="29" viewBox="0 0 27 29" fill="none" xmlns="http://www.w3.org/2000/svg">
<g clip-path="url(#clip0_1055_2209)">
<path d="M1.16672 1.68219C0.823008 1.68219 0.544375 1.40355 0.544375 1.05984C0.544375 0.716133 0.823008 0.4375 1.16672 0.4375C1.51043 0.4375 1.78906 0.716133 1.78906 1.05984C1.78906 1.40355 1.51043 1.68219 1.16672 1.68219Z" fill="#F44336"/>
<path d="M5.23992 8.57275C5.23992 8.57275 4.19977 9.97275 4.19977 10.5251C4.19977 11.0774 4.6482 11.5259 5.20055 11.5259C5.67195 11.5259 11.5662 11.5138 12.217 11.5138C12.8677 11.5138 13.2363 11.8956 13.2363 11.8956" stroke="#545454" stroke-width="0.3" stroke-miterlimit="10" stroke-linecap="round"/>
<path d="M7.59961 8.3999C7.59961 8.3999 6.44023 9.93662 6.44023 10.4901C6.44023 11.0435 6.94773 11.4876 7.50008 11.4876" stroke="#545454" stroke-width="0.3" stroke-miterlimit="10" stroke-linecap="round"/>
<path d="M4.9475 9.48586C5.16734 9.10961 5.34563 8.89086 5.63219 8.4993C5.63219 8.4993 5.55672 8.5157 5.35328 8.5157C5.14984 8.5157 5.00328 8.45117 5.00328 8.45117C4.71453 8.85914 4.62813 8.96305 4.47391 9.23648C4.47391 9.23648 4.47938 9.41477 4.62156 9.50883C4.76375 9.60289 4.9475 9.48586 4.9475 9.48586ZM7.15797 9.50445C7.46312 9.03852 7.70703 8.68305 7.70703 8.68305L7.05078 8.69836C7.05078 8.69836 6.75656 9.0932 6.58813 9.40602C6.58813 9.40602 6.56297 9.5482 6.75109 9.62258C6.93922 9.69477 7.15797 9.50445 7.15797 9.50445Z" fill="#2F7889"/>
<path d="M5.2382 8.60116L12.8879 8.09148C12.913 8.08929 12.9316 8.0696 12.9316 8.04445V3.77335C12.9316 3.73288 12.8999 3.69898 12.8595 3.69679L3.16555 3.07991C3.07149 3.07335 3.00367 3.16741 3.03758 3.25491L5.09602 8.51148C5.11898 8.56945 5.17586 8.60554 5.2382 8.60116Z" stroke="#545454" stroke-width="0.3" stroke-miterlimit="10"/>
<path d="M11.4116 3.61605L11.6128 8.14855M9.67578 3.49793L10.3047 8.2459M7.93891 3.3798L8.99656 8.34324M6.20203 3.26168L7.68844 8.44059M4.46625 3.14355L6.38031 8.53793M13.0938 5.30262L3.73563 4.98105M13.0073 6.7934H4.32297" stroke="#545454" stroke-width="0.2" stroke-miterlimit="10"/>
<path d="M5.20461 13.5625C4.74915 13.5625 4.37992 13.1932 4.37992 12.7378C4.37992 12.2823 4.74915 11.9131 5.20461 11.9131C5.66007 11.9131 6.0293 12.2823 6.0293 12.7378C6.0293 13.1932 5.66007 13.5625 5.20461 13.5625Z" fill="#424242"/>
<path d="M5.73633 11.6025H4.67211L4.92586 12.7061C4.94992 12.8779 5.06695 13.0025 5.20367 13.0025C5.34039 13.0025 5.45852 12.8779 5.48149 12.7061L5.73633 11.6025Z" fill="#545454"/>
<path d="M5.03359 12.7455C5.05328 12.8177 5.08937 12.8997 5.16265 12.9183C5.42734 12.9861 5.46453 12.3354 5.33109 12.2238C5.25015 12.156 5.08171 12.144 5.01062 12.2282C4.91984 12.3354 4.99968 12.6263 5.03359 12.7455Z" fill="#A8E3F0"/>
<path d="M5.19171 11.9928C5.3678 11.9928 5.49249 11.8888 5.55374 11.8243C5.5579 11.82 5.56073 11.8147 5.5619 11.8088C5.56307 11.803 5.56252 11.7969 5.56033 11.7913C5.55813 11.7858 5.55438 11.781 5.54952 11.7775C5.54467 11.7741 5.53892 11.7721 5.53296 11.7718C5.41921 11.7663 5.30546 11.7674 5.1928 11.7642C5.07905 11.7674 4.9653 11.7663 4.85264 11.7718C4.82639 11.7729 4.81327 11.8057 4.83186 11.8243C4.88983 11.8888 5.01561 11.9928 5.19171 11.9928Z" fill="#2F7889"/>
<path d="M5.46494 13.018C5.39384 13.1001 5.28009 13.1384 5.17181 13.1252C5.06463 13.1121 4.96619 13.0487 4.90166 12.9612C4.86447 12.9098 4.83822 12.8507 4.79556 12.8037C4.75291 12.7566 4.6851 12.7238 4.62603 12.7479C4.54291 12.7807 4.53197 12.8966 4.56041 12.9809C4.58798 13.065 4.63208 13.1428 4.69012 13.2096C4.74816 13.2765 4.81896 13.3311 4.89838 13.3702C5.00666 13.4238 5.15759 13.4457 5.27791 13.4337C5.50869 13.4096 5.75697 13.2007 5.83791 12.9863C5.88166 12.8715 5.91994 12.6407 5.69134 12.6932C5.58525 12.7184 5.55025 12.9196 5.46494 13.018Z" fill="#757575"/>
<path d="M3.08203 3.35898L2.57781 2.12633C2.37219 1.6232 2.22016 1.51055 1.915 1.37383L1.20078 1.08398" stroke="#545454" stroke-width="0.3" stroke-miterlimit="10" stroke-linecap="round"/>
<path d="M11.857 13.5625C11.4015 13.5625 11.0323 13.1932 11.0323 12.7378C11.0323 12.2823 11.4015 11.9131 11.857 11.9131C12.3124 11.9131 12.6816 12.2823 12.6816 12.7378C12.6816 13.1932 12.3124 13.5625 11.857 13.5625Z" fill="#424242"/>
<path d="M12.3887 11.6025H11.3245L11.5782 12.7061C11.6023 12.8779 11.7193 13.0025 11.856 13.0025C11.9927 13.0025 12.1109 12.8779 12.1338 12.7061L12.3887 11.6025Z" fill="#545454"/>
<path d="M11.6859 12.7455C11.7056 12.8177 11.7417 12.8997 11.815 12.9183C12.0797 12.9861 12.1169 12.3354 11.9834 12.2238C11.9025 12.156 11.7341 12.144 11.663 12.2282C11.5722 12.3354 11.6531 12.6263 11.6859 12.7455Z" fill="#A8E3F0"/>
<path d="M11.8441 11.9928C12.0201 11.9928 12.1448 11.8888 12.2061 11.8243C12.2102 11.82 12.2131 11.8147 12.2142 11.8088C12.2154 11.803 12.2149 11.7969 12.2127 11.7913C12.2105 11.7858 12.2067 11.781 12.2019 11.7775C12.197 11.7741 12.1913 11.7721 12.1853 11.7718C12.0716 11.7663 11.9578 11.7674 11.8451 11.7642C11.7314 11.7674 11.6176 11.7663 11.505 11.7718C11.4787 11.7729 11.4656 11.8057 11.4842 11.8243C11.5433 11.8888 11.6691 11.9928 11.8441 11.9928Z" fill="#2F7889"/>
<path d="M12.1173 13.018C12.0462 13.1001 11.9324 13.1384 11.8242 13.1252C11.717 13.1121 11.6185 13.0487 11.554 12.9612C11.5168 12.9098 11.4906 12.8507 11.4479 12.8037C11.4053 12.7566 11.3374 12.7238 11.2784 12.7479C11.1953 12.7807 11.1843 12.8966 11.2128 12.9809C11.2403 13.065 11.2844 13.1428 11.3425 13.2096C11.4005 13.2765 11.4713 13.3311 11.5507 13.3702C11.659 13.4238 11.8099 13.4457 11.9303 13.4337C12.161 13.4096 12.4093 13.2007 12.4903 12.9863C12.534 12.8715 12.5723 12.6407 12.3437 12.6932C12.2376 12.7184 12.2026 12.9196 12.1173 13.018Z" fill="#757575"/>
</g>
<g clip-path="url(#clip1_1055_2209)">
<path d="M14.1667 16.6822C13.823 16.6822 13.5444 16.4036 13.5444 16.0598C13.5444 15.7161 13.823 15.4375 14.1667 15.4375C14.5104 15.4375 14.7891 15.7161 14.7891 16.0598C14.7891 16.4036 14.5104 16.6822 14.1667 16.6822Z" fill="#F44336"/>
<path d="M18.2399 23.5728C18.2399 23.5728 17.1998 24.9728 17.1998 25.5251C17.1998 26.0774 17.6482 26.5259 18.2005 26.5259C18.672 26.5259 24.5662 26.5138 25.217 26.5138C25.8677 26.5138 26.2363 26.8956 26.2363 26.8956" stroke="#545454" stroke-width="0.3" stroke-miterlimit="10" stroke-linecap="round"/>
<path d="M20.5996 23.3999C20.5996 23.3999 19.4402 24.9366 19.4402 25.4901C19.4402 26.0435 19.9477 26.4876 20.5001 26.4876" stroke="#545454" stroke-width="0.3" stroke-miterlimit="10" stroke-linecap="round"/>
<path d="M17.9475 24.4859C18.1673 24.1096 18.3456 23.8909 18.6322 23.4993C18.6322 23.4993 18.5567 23.5157 18.3533 23.5157C18.1498 23.5157 18.0033 23.4512 18.0033 23.4512C17.7145 23.8591 17.6281 23.963 17.4739 24.2365C17.4739 24.2365 17.4794 24.4148 17.6216 24.5088C17.7638 24.6029 17.9475 24.4859 17.9475 24.4859ZM20.158 24.5045C20.4631 24.0385 20.707 23.683 20.707 23.683L20.0508 23.6984C20.0508 23.6984 19.7566 24.0932 19.5881 24.406C19.5881 24.406 19.563 24.5482 19.7511 24.6226C19.9392 24.6948 20.158 24.5045 20.158 24.5045Z" fill="#2F7889"/>
<path d="M18.2382 23.6012L25.8879 23.0915C25.913 23.0893 25.9316 23.0696 25.9316 23.0444V18.7734C25.9316 18.7329 25.8999 18.699 25.8595 18.6968L16.1655 18.0799C16.0715 18.0734 16.0037 18.1674 16.0376 18.2549L18.096 23.5115C18.119 23.5694 18.1759 23.6055 18.2382 23.6012Z" stroke="#545454" stroke-width="0.3" stroke-miterlimit="10"/>
<path d="M24.4116 18.6161L24.6128 23.1486M22.6758 18.4979L23.3047 23.2459M20.9389 18.3798L21.9966 23.3432M19.202 18.2617L20.6884 23.4406M17.4663 18.1436L19.3803 23.5379M26.0938 20.3026L16.7356 19.9811M26.0073 21.7934H17.323" stroke="#545454" stroke-width="0.2" stroke-miterlimit="10"/>
<path d="M18.2046 28.5625C17.7491 28.5625 17.3799 28.1932 17.3799 27.7378C17.3799 27.2823 17.7491 26.9131 18.2046 26.9131C18.6601 26.9131 19.0293 27.2823 19.0293 27.7378C19.0293 28.1932 18.6601 28.5625 18.2046 28.5625Z" fill="#424242"/>
<path d="M18.7363 26.6025H17.6721L17.9259 27.7061C17.9499 27.8779 18.067 28.0025 18.2037 28.0025C18.3404 28.0025 18.4585 27.8779 18.4815 27.7061L18.7363 26.6025Z" fill="#545454"/>
<path d="M18.0336 27.7455C18.0533 27.8177 18.0894 27.8997 18.1627 27.9183C18.4273 27.9861 18.4645 27.3354 18.3311 27.2238C18.2502 27.156 18.0817 27.144 18.0106 27.2282C17.9198 27.3354 17.9997 27.6263 18.0336 27.7455Z" fill="#A8E3F0"/>
<path d="M18.1917 26.9928C18.3678 26.9928 18.4925 26.8888 18.5537 26.8243C18.5579 26.82 18.5607 26.8147 18.5619 26.8088C18.5631 26.803 18.5625 26.7969 18.5603 26.7913C18.5581 26.7858 18.5544 26.781 18.5495 26.7775C18.5447 26.7741 18.5389 26.7721 18.533 26.7718C18.4192 26.7663 18.3055 26.7674 18.1928 26.7642C18.0791 26.7674 17.9653 26.7663 17.8526 26.7718C17.8264 26.7729 17.8133 26.8057 17.8319 26.8243C17.8898 26.8888 18.0156 26.9928 18.1917 26.9928Z" fill="#2F7889"/>
<path d="M18.4649 28.018C18.3938 28.1001 18.2801 28.1384 18.1718 28.1252C18.0646 28.1121 17.9662 28.0487 17.9017 27.9612C17.8645 27.9098 17.8382 27.8507 17.7956 27.8037C17.7529 27.7566 17.6851 27.7238 17.626 27.7479C17.5429 27.7807 17.532 27.8966 17.5604 27.9809C17.588 28.065 17.6321 28.1428 17.6901 28.2096C17.7482 28.2765 17.819 28.3311 17.8984 28.3702C18.0067 28.4238 18.1576 28.4457 18.2779 28.4337C18.5087 28.4096 18.757 28.2007 18.8379 27.9863C18.8817 27.8715 18.9199 27.6407 18.6913 27.6932C18.5853 27.7184 18.5503 27.9196 18.4649 28.018Z" fill="#757575"/>
<path d="M16.082 18.359L15.5778 17.1263C15.3722 16.6232 15.2202 16.5105 14.915 16.3738L14.2008 16.084" stroke="#545454" stroke-width="0.3" stroke-miterlimit="10" stroke-linecap="round"/>
<path d="M24.857 28.5625C24.4015 28.5625 24.0323 28.1932 24.0323 27.7378C24.0323 27.2823 24.4015 26.9131 24.857 26.9131C25.3124 26.9131 25.6816 27.2823 25.6816 27.7378C25.6816 28.1932 25.3124 28.5625 24.857 28.5625Z" fill="#424242"/>
<path d="M25.3887 26.6025H24.3245L24.5782 27.7061C24.6023 27.8779 24.7193 28.0025 24.856 28.0025C24.9927 28.0025 25.1109 27.8779 25.1338 27.7061L25.3887 26.6025Z" fill="#545454"/>
<path d="M24.6859 27.7455C24.7056 27.8177 24.7417 27.8997 24.815 27.9183C25.0797 27.9861 25.1169 27.3354 24.9834 27.2238C24.9025 27.156 24.7341 27.144 24.663 27.2282C24.5722 27.3354 24.6531 27.6263 24.6859 27.7455Z" fill="#A8E3F0"/>
<path d="M24.8441 26.9928C25.0201 26.9928 25.1448 26.8888 25.2061 26.8243C25.2102 26.82 25.2131 26.8147 25.2142 26.8088C25.2154 26.803 25.2149 26.7969 25.2127 26.7913C25.2105 26.7858 25.2067 26.781 25.2019 26.7775C25.197 26.7741 25.1913 26.7721 25.1853 26.7718C25.0716 26.7663 24.9578 26.7674 24.8451 26.7642C24.7314 26.7674 24.6176 26.7663 24.505 26.7718C24.4787 26.7729 24.4656 26.8057 24.4842 26.8243C24.5433 26.8888 24.6691 26.9928 24.8441 26.9928Z" fill="#2F7889"/>
<path d="M25.1173 28.018C25.0462 28.1001 24.9324 28.1384 24.8242 28.1252C24.717 28.1121 24.6185 28.0487 24.554 27.9612C24.5168 27.9098 24.4906 27.8507 24.4479 27.8037C24.4053 27.7566 24.3374 27.7238 24.2784 27.7479C24.1953 27.7807 24.1843 27.8966 24.2128 27.9809C24.2403 28.065 24.2844 28.1428 24.3425 28.2096C24.4005 28.2765 24.4713 28.3311 24.5507 28.3702C24.659 28.4238 24.8099 28.4457 24.9303 28.4337C25.161 28.4096 25.4093 28.2007 25.4903 27.9863C25.534 27.8715 25.5723 27.6407 25.3437 27.6932C25.2376 27.7184 25.2026 27.9196 25.1173 28.018Z" fill="#757575"/>
</g>
<defs>
<clipPath id="clip0_1055_2209">
<rect width="14" height="14" fill="white" transform="matrix(-1 0 0 1 14 0)"/>
</clipPath>
<clipPath id="clip1_1055_2209">
<rect width="14" height="14" fill="white" transform="matrix(-1 0 0 1 27 15)"/>
</clipPath>
</defs>
</svg>
