    <svg width="32" height="32" viewBox="0 0 32 32" fill="none" xmlns="http://www.w3.org/2000/svg">
    <g clip-path="url(#clip0_305_334)">
    <path d="M16.5851 14.635L16.2631 13.7707L30.0881 14.0662L28.0769 12.1907L15.3173 11.7607C15.1094 11.3788 14.8077 11.0975 14.4055 10.7224C11.5898 8.09671 7.31438 8.24601 4.68868 11.0617C2.06299 13.8774 2.31285 18.2466 5.028 20.7785C7.74315 23.3104 12.1191 23.2549 14.7448 20.4392C15.3074 19.8358 15.7695 19.1387 16.0373 18.4483L18.5636 18.3601L20.4391 16.3489L22.4504 18.2244L24.3259 16.2132L26.3371 18.0887L28.2804 18.0208L31.0937 15.004L16.5851 14.635ZM6.64808 17.0251C5.94415 16.3686 6.004 15.2964 6.56665 14.693C7.12929 14.0897 8.29531 14.0489 8.89868 14.6116C9.50204 15.1742 9.54276 16.3403 8.98011 16.9436C8.41746 17.547 7.35201 17.6815 6.64808 17.0251Z" fill="#D9D9D9" fill-opacity="0.9"/>
    </g>
    <defs>
    <clipPath id="clip0_305_334">
    <rect width="22" height="22" fill="white" transform="translate(15.0039) rotate(43)"/>
    </clipPath>
    </defs>
    </svg>
