<svg width="37" height="45" viewBox="0 0 37 45" fill="none" xmlns="http://www.w3.org/2000/svg">
<g clip-path="url(#clip0_305_439)">
<path d="M33.0455 12.7758L23.4942 3.22453C23.2306 2.96079 22.8729 2.81258 22.5 2.8125H8.4375C6.89062 2.8125 5.625 4.07812 5.625 5.625V39.375C5.625 40.9219 6.89062 42.1875 8.4375 42.1875H19.6875V39.375H8.4375V5.625H19.6875V14.0625C19.6875 15.6136 20.9489 16.875 22.5 16.875H31.3481C32.3227 16.875 33.1931 16.2928 33.5658 15.3928C33.9398 14.4928 33.7345 13.4663 33.0455 12.7758ZM22.5 14.0625V6.20719L30.3539 14.0625H22.5Z" fill="#FF6600"/>
<path d="M50.6959 26.9718C50.4024 26.5407 50.0518 26.1513 49.6538 25.8143L50.0604 23.7291C50.0804 23.6354 50.0646 23.5375 50.0162 23.4548C49.9678 23.3721 49.8903 23.3103 49.7989 23.2817L46.7757 22.3302C46.5936 22.2587 46.3647 22.3706 46.2814 22.5397L45.3128 24.4716C44.8016 24.5315 44.3008 24.6292 43.7832 24.8127L42.1686 23.4642C42.0926 23.407 41.999 23.3779 41.9039 23.3819C41.8087 23.386 41.718 23.4229 41.647 23.4864L39.2411 25.6527C39.085 25.7933 39.0487 26.0144 39.1515 26.1809L40.3238 27.9275C40.0872 28.4232 39.9377 28.911 39.8247 29.4131L37.8022 30.1745C37.6253 30.2396 37.49 30.4556 37.5551 30.6325L38.1724 33.7503C38.2114 33.9506 38.391 34.0715 38.59 34.0571L40.7063 33.8707C40.8689 34.0774 41.0186 34.2959 41.1942 34.491C41.3699 34.6861 41.5598 34.8447 41.7485 35.0281L41.3535 37.1263C41.3336 37.2201 41.3494 37.3179 41.3977 37.4006C41.4461 37.4834 41.5236 37.5451 41.6151 37.5737L44.6513 38.5135C44.8204 38.5967 45.0376 38.4718 45.1325 38.3157L46.0894 36.3708C46.6123 36.3239 47.1131 36.2262 47.6308 36.0427L49.2453 37.3912C49.4001 37.5109 49.6238 37.4978 49.7799 37.3573L52.1858 35.191C52.3289 35.0622 52.3653 34.841 52.2625 34.6745L51.0901 32.9279C51.3267 32.4322 51.4762 31.9444 51.5775 31.4293L53.6118 30.6809C53.777 30.6028 53.9239 30.3999 53.8718 30.2113L53.2416 27.1052C53.2226 27.0112 53.1694 26.9277 53.0921 26.8709C53.0149 26.8142 52.9193 26.7883 52.8239 26.7983L50.6959 26.9718ZM47.4634 32.3785C46.384 33.3504 44.7281 33.2636 43.7562 32.1842C42.7843 31.1048 42.8711 29.4489 43.9505 28.477C45.0299 27.505 46.6858 27.5918 47.6577 28.6712C48.6296 29.7507 48.5429 31.4066 47.4634 32.3785ZM17.803 19.0523C20.8465 17.7248 24.3978 18.5305 26.6226 21.0014C28.9646 23.6024 29.3947 27.2185 27.7563 30.1065L40.6371 44.4121C40.9884 44.8022 40.9625 45.2965 40.5723 45.6478L37.9713 47.9898C37.5812 48.3411 37.0869 48.3152 36.6185 47.795L23.7377 33.4894C20.6942 34.8169 17.143 34.0112 14.9181 31.5402C12.6933 29.0693 12.2632 25.4533 13.9015 22.5652L18.2341 27.3771L22.1356 23.8641L17.803 19.0523Z" fill="#FF6600"/>
</g>
<defs>
<clipPath id="clip0_305_439">
<rect width="37" height="45" fill="white"/>
</clipPath>
</defs>
</svg>
