<svg width="100" height="100" viewBox="0 0 100 100" fill="none" xmlns="http://www.w3.org/2000/svg">
<path d="M22.916 87.5C22.916 89.7102 23.794 91.8298 25.3568 93.3926C26.9196 94.9554 29.0392 95.8334 31.2494 95.8334C33.4595 95.8334 35.5791 94.9554 37.1419 93.3926C38.7047 91.8298 39.5827 89.7102 39.5827 87.5M52.0827 87.5C52.0827 89.7102 52.9607 91.8298 54.5235 93.3926C56.0863 94.9554 58.2059 95.8334 60.416 95.8334C62.6262 95.8334 64.7458 94.9554 66.3086 93.3926C67.8714 91.8298 68.7494 89.7102 68.7494 87.5M29.166 31.25H93.7494V32.2917L92.7536 33.4708C82.6316 45.4917 77.0814 60.7019 77.0827 76.4167V77.0834H22.916V69.25C22.916 60.5834 22.641 51.925 21.3077 43.3667C18.9994 28.55 13.9035 6.25 4.16602 6.25" stroke="#FF6600" stroke-width="3"/>
</svg>
