<svg width="30" height="30" viewBox="0 0 30 30" fill="none" xmlns="http://www.w3.org/2000/svg">
<g clip-path="url(#clip0_305_244)">
<path fill-rule="evenodd" clip-rule="evenodd" d="M29.222 2.5672C29.4389 2.74644 29.6185 2.96667 29.7504 3.2153C29.8822 3.46394 29.9638 3.73612 29.9905 4.0163C30.0172 4.29647 29.9884 4.57916 29.9058 4.84821C29.8232 5.11725 29.6884 5.3674 29.5091 5.58435L12.2805 26.4343L12.2741 26.4386C11.8827 26.9098 11.391 27.2877 10.8349 27.5446C10.2788 27.8015 9.67234 27.931 9.05982 27.9236C8.43809 27.9165 7.82606 27.7686 7.26971 27.491C6.71336 27.2134 6.22717 26.8133 5.84767 26.3208L5.84553 26.3165L0.449816 19.3822C0.269651 19.1609 0.135503 18.9058 0.0552446 18.632C-0.0250136 18.3581 -0.0497656 18.071 -0.0175586 17.7875C0.0146483 17.5039 0.103165 17.2297 0.242798 16.9808C0.382431 16.7319 0.570366 16.5135 0.795575 16.3382C1.02078 16.1629 1.27873 16.0344 1.55428 15.9602C1.82982 15.886 2.11742 15.8676 2.40019 15.906C2.68296 15.9444 2.9552 16.0389 3.20094 16.184C3.44669 16.3291 3.66098 16.5218 3.83124 16.7508L9.11124 23.5372L26.2027 2.85435C26.3819 2.63736 26.6021 2.4578 26.8508 2.32594C27.0994 2.19407 27.3716 2.11248 27.6518 2.08581C27.9319 2.05915 28.2146 2.08794 28.4837 2.17053C28.7527 2.25313 29.0029 2.38792 29.2198 2.5672H29.222Z" fill="#12F078"/>
</g>
<defs>
<clipPath id="clip0_305_244">
<rect width="30" height="30" fill="white"/>
</clipPath>
</defs>
</svg>
