<svg width="35" height="36" viewBox="0 0 35 36" fill="none" xmlns="http://www.w3.org/2000/svg">
<path d="M31.8185 0.834961C33.5755 0.834961 35 2.25833 35 4.01394V32.6282C34.9991 33.471 34.6636 34.2791 34.0671 34.8751C33.4707 35.471 32.662 35.8063 31.8185 35.8072H3.1815C2.338 35.8063 1.52931 35.471 0.932863 34.8751C0.336417 34.2791 0.000926417 33.471 0 32.6282L0 4.01394C0 2.25833 1.4245 0.834961 3.1815 0.834961H31.8185ZM25.305 14.1681C25.1959 14.0556 25.0657 13.9657 24.9217 13.9036C24.7778 13.8416 24.623 13.8085 24.4662 13.8064C24.3095 13.8043 24.1538 13.8331 24.0083 13.8913C23.8627 13.9495 23.7301 14.0358 23.618 14.1454L17.5088 20.0942L11.5238 14.1541C11.2962 13.948 10.9978 13.8374 10.6907 13.8454C10.3836 13.8535 10.0915 13.9796 9.87507 14.1974C9.65865 14.4152 9.53461 14.7081 9.52878 15.0149C9.52295 15.3218 9.63576 15.6192 9.84375 15.845L16.6583 22.6122C17.122 23.072 17.8657 23.0755 18.333 22.6209L25.2822 15.8538C25.3949 15.7448 25.4848 15.6147 25.547 15.4708C25.6091 15.327 25.6421 15.1723 25.6443 15.0157C25.6464 14.859 25.6175 14.7035 25.5593 14.5581C25.501 14.4126 25.4146 14.2801 25.305 14.1681Z" fill="black"/>
</svg>
