<svg width="30" height="30" viewBox="0 0 30 30" fill="none" xmlns="http://www.w3.org/2000/svg">
<path d="M9.78203 16.25L15.907 22.375C16.157 22.625 16.277 22.9167 16.267 23.25C16.257 23.5833 16.1266 23.875 15.8758 24.125C15.6258 24.3542 15.3341 24.4742 15.0008 24.485C14.6674 24.4958 14.3758 24.3758 14.1258 24.125L5.87578 15.875C5.75078 15.75 5.66203 15.6146 5.60953 15.4688C5.55703 15.3229 5.53161 15.1667 5.53328 15C5.53495 14.8333 5.5612 14.6771 5.61203 14.5312C5.66286 14.3854 5.7512 14.25 5.87703 14.125L14.127 5.875C14.3562 5.64583 14.6429 5.53125 14.987 5.53125C15.3312 5.53125 15.6279 5.64583 15.877 5.875C16.127 6.125 16.252 6.42208 16.252 6.76625C16.252 7.11042 16.127 7.40708 15.877 7.65625L9.78203 13.75H23.7508C24.1049 13.75 24.402 13.87 24.642 14.11C24.882 14.35 25.0016 14.6467 25.0008 15C24.9999 15.3533 24.8799 15.6504 24.6408 15.8913C24.4016 16.1321 24.1049 16.2517 23.7508 16.25H9.78203Z" fill="white"/>
</svg>
