<svg width="35" height="35" viewBox="0 0 35 35" fill="none" xmlns="http://www.w3.org/2000/svg">
<path d="M16.0417 8.75H13.125V13.125H8.75V16.0417H13.125V20.4167H16.0417V16.0417H20.4167V13.125H16.0417V8.75Z" fill="black"/>
<path d="M14.5827 2.9165C8.14997 2.9165 2.91602 8.15046 2.91602 14.5832C2.91602 21.0159 8.14997 26.2498 14.5827 26.2498C17.1712 26.2495 19.6852 25.383 21.7241 23.7882L28.135 30.199L30.1971 28.1369L23.7862 21.7261C25.3818 19.687 26.2489 17.1724 26.2493 14.5832C26.2493 8.15046 21.0154 2.9165 14.5827 2.9165ZM14.5827 23.3332C9.75706 23.3332 5.83268 19.4088 5.83268 14.5832C5.83268 9.75755 9.75706 5.83317 14.5827 5.83317C19.4083 5.83317 23.3327 9.75755 23.3327 14.5832C23.3327 19.4088 19.4083 23.3332 14.5827 23.3332Z" fill="black"/>
</svg>
