<svg width="35" height="35" viewBox="0 0 35 35" fill="none" xmlns="http://www.w3.org/2000/svg">
<path d="M23.4588 21.875C25.2629 19.7319 26.2515 17.0201 26.25 14.2188C26.25 11.8392 25.5444 9.51308 24.2224 7.53455C22.9004 5.55602 21.0213 4.01395 18.8229 3.10333C16.6245 2.19271 14.2054 1.95445 11.8716 2.41868C9.53774 2.88291 7.39398 4.02878 5.71138 5.71138C4.02878 7.39398 2.88291 9.53774 2.41868 11.8716C1.95445 14.2054 2.19271 16.6245 3.10333 18.8229C4.01395 21.0213 5.55602 22.9004 7.53455 24.2224C9.51308 25.5444 11.8392 26.25 14.2188 26.25C17.0201 26.2515 19.7319 25.2629 21.875 23.4588L30.1722 31.7188L31.7188 30.1722L23.4588 21.875ZM14.2188 24.0625C12.2718 24.0625 10.3687 23.4852 8.74986 22.4035C7.13106 21.3219 5.86937 19.7845 5.12432 17.9858C4.37927 16.1871 4.18433 14.2078 4.56415 12.2983C4.94397 10.3888 5.8815 8.63485 7.25817 7.25817C8.63485 5.8815 10.3888 4.94397 12.2983 4.56415C14.2078 4.18433 16.1871 4.37927 17.9858 5.12432C19.7845 5.86937 21.3219 7.13106 22.4035 8.74986C23.4852 10.3687 24.0625 12.2718 24.0625 14.2188C24.0596 16.8286 23.0216 19.3307 21.1761 21.1761C19.3307 23.0216 16.8286 24.0596 14.2188 24.0625Z" fill="black"/>
<path d="M10.9375 13.125H8.75V10.9375C8.75 10.3573 8.98047 9.80094 9.3907 9.3907C9.80094 8.98047 10.3573 8.75 10.9375 8.75H13.125V10.9375H10.9375V13.125ZM19.6875 13.125H17.5V10.9375H15.3125V8.75H17.5C18.0802 8.75 18.6366 8.98047 19.0468 9.3907C19.457 9.80094 19.6875 10.3573 19.6875 10.9375V13.125ZM13.125 19.6875H10.9375C10.3573 19.6875 9.80094 19.457 9.3907 19.0468C8.98047 18.6366 8.75 18.0802 8.75 17.5V15.3125H10.9375V17.5H13.125V19.6875ZM17.5 19.6875H15.3125V17.5H17.5V15.3125H19.6875V17.5C19.6875 18.0802 19.457 18.6366 19.0468 19.0468C18.6366 19.457 18.0802 19.6875 17.5 19.6875Z" fill="black"/>
</svg>
