<svg width="34" height="26" viewBox="0 0 34 26" fill="none" xmlns="http://www.w3.org/2000/svg">
<path d="M19.5 0.0942383H23V6.42255H19.5V0.0942383ZM19.5 9.5867H23V15.915H19.5V9.5867ZM23 19.0792H19.5V25.4075H23V19.0792ZM24.75 0.0942383H28.25V6.42255H24.75V0.0942383ZM28.25 9.5867H24.75V15.915H28.25V9.5867ZM24.75 19.0792H28.25V25.4075H24.75V19.0792ZM33.5 0.0942383H30V6.42255H33.5V0.0942383ZM30 9.5867H33.5V15.915H30V9.5867ZM33.5 19.0792H30V25.4075H33.5V19.0792Z" fill="#D9D9D9" fill-opacity="0.9"/>
<rect x="0.5" y="0.5" width="11" height="24" stroke="#D9D9D9" stroke-opacity="0.9"/>
<path d="M18 12.5L14.25 14.6651V10.3349L18 12.5Z" fill="#D9D9D9"/>
</svg>
