<svg width="35" height="35" viewBox="0 0 35 35" fill="none" xmlns="http://www.w3.org/2000/svg">
<path d="M7.29102 10.2085H13.1243C13.8979 10.2085 14.6398 10.5158 15.1867 11.0628C15.7337 11.6097 16.041 12.3516 16.041 13.1252V21.8752C16.041 22.6487 15.7337 23.3906 15.1867 23.9376C14.6398 24.4845 13.8979 24.7918 13.1243 24.7918H7.29102V21.8752H13.1243V18.9585H8.74935V16.0418H13.1243V13.1252H7.29102V10.2085ZM18.9577 10.2085H23.3327C24.493 10.2085 25.6058 10.6694 26.4263 11.4899C27.2467 12.3104 27.7077 13.4232 27.7077 14.5835V20.4168C27.7077 21.5772 27.2467 22.6899 26.4263 23.5104C25.6058 24.3309 24.493 24.7918 23.3327 24.7918H18.9577V10.2085ZM23.3327 21.8752C23.7195 21.8752 24.0904 21.7215 24.3639 21.448C24.6374 21.1745 24.791 20.8036 24.791 20.4168V14.5835C24.791 14.1967 24.6374 13.8258 24.3639 13.5523C24.0904 13.2788 23.7195 13.1252 23.3327 13.1252H21.8743V21.8752H23.3327Z" fill="#545454"/>
</svg>
