<svg width="39" height="41" viewBox="0 0 39 41" fill="none" xmlns="http://www.w3.org/2000/svg">
<g filter="url(#filter0_d_305_301)">
<path d="M15.1243 2.9165C17.8318 2.9165 20.4283 3.99202 22.3427 5.90646C24.2572 7.82089 25.3327 10.4174 25.3327 13.1248C25.3327 15.4144 24.6035 17.4998 23.3056 19.2353L24.4723 20.4165H25.3327L34.0827 29.1665L31.166 32.0832L22.416 23.3332V22.4728L21.2348 21.3061C19.4749 22.6327 17.3282 23.3449 15.1243 23.3332C12.4169 23.3332 9.8204 22.2577 7.90597 20.3432C5.99153 18.4288 4.91602 15.8323 4.91602 13.1248C4.91602 10.4174 5.99153 7.82089 7.90597 5.90646C9.8204 3.99202 12.4169 2.9165 15.1243 2.9165ZM9.29102 11.6665V14.5832H20.9577V11.6665H9.29102Z" fill="#545454" fill-opacity="0.8"/>
</g>
<defs>
<filter id="filter0_d_305_301" x="-2" y="0" width="43" height="43" filterUnits="userSpaceOnUse" color-interpolation-filters="sRGB">
<feFlood flood-opacity="0" result="BackgroundImageFix"/>
<feColorMatrix in="SourceAlpha" type="matrix" values="0 0 0 0 0 0 0 0 0 0 0 0 0 0 0 0 0 0 127 0" result="hardAlpha"/>
<feOffset dy="4"/>
<feGaussianBlur stdDeviation="2"/>
<feComposite in2="hardAlpha" operator="out"/>
<feColorMatrix type="matrix" values="0 0 0 0 0 0 0 0 0 0 0 0 0 0 0 0 0 0 0.25 0"/>
<feBlend mode="normal" in2="BackgroundImageFix" result="effect1_dropShadow_305_301"/>
<feBlend mode="normal" in="SourceGraphic" in2="effect1_dropShadow_305_301" result="shape"/>
</filter>
</defs>
</svg>
